<svg width="92" height="33" viewBox="0 0 92 33" fill="none" xmlns="http://www.w3.org/2000/svg">
<path d="M2.67594 26.1743C3.60491 26.1743 4.35799 25.4212 4.35799 24.4923V18.58C4.35799 15.1672 5.74684 14.3371 7.44432 14.3371C9.20353 14.3371 10.0677 15.3517 10.0677 17.7191V24.4923C10.0677 25.4212 10.8208 26.1743 11.7497 26.1743C12.6787 26.1743 13.4318 25.4212 13.4318 24.4923V18.58C13.4318 15.1672 14.7589 14.3371 16.4564 14.3371C18.2156 14.3371 19.1415 15.3824 19.1415 17.7499V24.4923C19.1415 25.4212 19.8946 26.1743 20.8235 26.1743C21.7525 26.1743 22.5056 25.4212 22.5056 24.4923V17.1042C22.5056 14.4293 21.6414 11.4777 17.3206 11.4777C15.3564 11.4777 13.7078 12.5069 12.9837 13.8761C12.9525 13.9352 12.8646 13.9338 12.8357 13.8736C12.192 12.5325 10.8964 11.4777 8.37022 11.4777C6.64436 11.4777 5.22974 12.3562 4.53055 13.521C4.48565 13.5958 4.35799 13.5649 4.35799 13.4777C4.35799 12.5769 3.62775 11.8466 2.72694 11.8466H2.67594C1.74697 11.8466 0.993896 12.5997 0.993896 13.5287V24.4923C0.993896 25.4212 1.74697 26.1743 2.67594 26.1743Z" fill="#09BD67"/>
<path d="M31.426 26.5433C33.0857 26.5433 34.9376 25.7771 35.8934 24.477C35.9426 24.4102 36.0555 24.4438 36.0555 24.5268C36.0555 25.4367 36.8026 26.1743 37.7126 26.1743C38.633 26.1743 39.3888 25.4281 39.3888 24.5077V13.5133C39.3888 12.5928 38.633 11.8466 37.7126 11.8466C36.8026 11.8466 36.0555 12.5843 36.0555 13.4942C36.0555 13.5771 35.9432 13.6103 35.8949 13.5429C34.9634 12.2435 33.3234 11.4777 31.5186 11.4777C27.0435 11.4777 24.3584 14.7983 24.3584 19.0105C24.3584 23.2227 26.7966 26.5433 31.426 26.5433ZM31.9199 23.5609C29.2965 23.5609 27.7225 21.6239 27.7225 19.0105C27.7225 16.3971 29.2965 14.4601 31.9199 14.4601C34.7901 14.4601 36.179 16.5508 36.179 19.0105C36.179 21.4702 34.7901 23.5609 31.9199 23.5609Z" fill="#09BD67"/>
<path d="M53.0549 13.4867C53.0549 13.57 52.9412 13.6027 52.8934 13.5345C51.9866 12.2402 50.3498 11.4777 48.5489 11.4777C44.228 11.4777 41.3886 14.7983 41.3886 19.0105C41.3886 23.2227 43.9811 26.5433 48.4563 26.5433C49.6819 26.5433 51.0124 26.1254 51.999 25.3833C52.3502 25.119 53.0549 25.3658 53.0549 25.8054C53.0549 29.0337 51.6044 30.2328 48.8575 30.2328C47.3847 30.2328 46.3616 29.8469 45.7408 29.186C45.1207 28.526 44.4054 27.8039 43.4998 27.8039C42.4315 27.8039 41.548 28.7289 42.0224 29.6861C42.4176 30.4834 43.0392 31.1736 43.8268 31.7086C45.1539 32.6002 46.9749 32.9999 48.8884 32.9999C50.9562 32.9999 52.6228 32.631 53.8265 31.7394C55.524 30.5095 56.419 28.388 56.419 25.5594V13.5287C56.419 12.5997 55.6659 11.8466 54.737 11.8466H54.695C53.7892 11.8466 53.0549 12.5809 53.0549 13.4867ZM48.9501 23.5609C46.4193 23.5609 44.7527 21.6239 44.7527 19.0105C44.7527 16.3971 46.4193 14.4601 48.9501 14.4601C51.6969 14.4601 53.2092 16.5508 53.2092 19.0105C53.2092 21.4702 51.6969 23.5609 48.9501 23.5609Z" fill="#09BD67"/>
<path d="M61.1657 26.1743C62.0861 26.1743 62.8323 25.4281 62.8323 24.5077V13.5133C62.8323 12.5928 62.0861 11.8466 61.1657 11.8466C60.2452 11.8466 59.4991 12.5928 59.4991 13.5132V24.5077C59.4991 25.4281 60.2452 26.1743 61.1657 26.1743Z" fill="#09BD67"/>
<path d="M72.0001 26.5433C75.1543 26.5433 77.3738 25.2322 78.3289 23.1179C78.7625 22.158 77.9092 21.2242 76.8558 21.2242C76.0343 21.2242 75.3816 21.8408 74.8651 22.4795C74.2948 23.1848 73.3712 23.5609 72.0001 23.5609C69.6237 23.5609 68.204 21.9314 68.204 19.0105C68.204 16.0896 69.6237 14.4601 72.0001 14.4601C73.4039 14.4601 74.3387 14.8689 74.9054 15.6565C75.3891 16.3287 76.0446 16.9505 76.8728 16.9505C77.918 16.9505 78.7649 16.028 78.3564 15.066C77.417 12.8532 75.185 11.4777 72.0001 11.4777C67.525 11.4777 64.8399 14.5523 64.8399 19.0105C64.8399 23.4687 67.525 26.5433 72.0001 26.5433Z" fill="#09BD67"/>
<path d="M63.1484 7.74547C63.1484 8.85899 62.3298 9.7498 61.1391 9.7498C59.9484 9.7498 59.1298 8.85899 59.1298 7.74547C59.1298 6.63196 59.9484 5.74115 61.1391 5.74115C62.3298 5.74115 63.1484 6.63196 63.1484 7.74547Z" fill="#09BD67"/>
<path d="M82.5331 14.6232C82.7691 15.4197 83.7092 15.4197 83.9452 14.6232C84.3948 13.1053 84.8847 11.525 85.9551 10.4572C87.0256 9.38938 88.6098 8.90071 90.1315 8.45219C90.93 8.21684 90.93 7.27901 90.1315 7.04366C88.6098 6.59514 87.0256 6.10647 85.9551 5.03868C84.8847 3.9709 84.3948 2.39058 83.9452 0.872691C83.7092 0.0761817 82.7691 0.0761831 82.5331 0.872692C82.0835 2.39058 81.5936 3.9709 80.5232 5.03868C79.4528 6.10647 77.8685 6.59514 76.3469 7.04366C75.5484 7.27901 75.5484 8.21684 76.3469 8.45219C77.8685 8.90071 79.4528 9.38938 80.5232 10.4572C81.5936 11.525 82.0835 13.1053 82.5331 14.6232Z" fill="#09BD67"/>
</svg>
